<svg id="Capa_1" data-name="Capa 1" xmlns="http://www.w3.org/2000/svg" viewBox="0 0 1080 1080"><path d="M451,475.18c101-3.69,201.44,7.05,300.28-15-27.12,1.69-54.23,4.48-81.37,4.86-72.63,1-145.28,1.08-217.92,1.19-4.63,0-9.7-2.08-13.81-4.49A65.45,65.45,0,0,0,396.08,453c-33.18,3.85-66.35,7.81-99.61,10.79-9.84.88-14.64,4.3-14.69,15.65,6.47-.3,12.88-.91,19.29-.86,37.54.27,75.08.43,112.6,1.2,14,.29,26.33,5.47,34.05,17.95,20,32.28,51.43,41.74,86.53,44.3,76.69,5.58,152.73-1.13,228.38-13.06,13.72-2.17,26.78-8.51,40.6-13.07,13.32,19.25,9.94,80.91-5.75,98.54,1.46,3.27,3.73,6.05,3.84,8.92,1,26.57-15.36,45.44-41.35,48.19-31.64,3.34-41.62-2.35-56.07-35.11-4-9.12-8.2-12.76-18.25-11.64q-90.85,10.14-181.81,19.37c-6.92.71-9.82,3.35-11.47,10.24-4,16.53-15.21,25.38-32,26.68-4.15.32-8.35.17-12.52.17-26.12,0-31.22-3.86-37-30-2.23-10.12-3-20.55-4.62-32-17-2-34.25-5.19-51.58-5.78-8.59-.3-18.34,2.14-18.75,15.21-.31,10-6.75,14.62-16.89,14.14-6.25-.3-12.64-.78-18.78.11-14,2-21-4.91-21.61-17.57-1-21.48-.71-43-.78-64.57,0-3.23.87-6.46-.27-10.2q-2.65,5.85-5.29,11.71l-2.91,0c0-14.44-.7-28.92.26-43.29.59-8.94,11.51-11.42,17.56-3.09,5.63,7.74,8.76,17.67,11.44,27.08,3.3,11.58,4.66,23.71,7.55,35.43,1.21,4.87,4.2,9.3,8,13.14-4.13-22-7.88-44.07-12.52-66-4-19-8.82-22.7-27.35-23.78-2.81-36.37,14.85-66.57,32.49-95.33,15-24.43,42.67-32.81,70.1-36.65,63.57-8.91,127.47-9.26,191.17-2.29,13.78,1.51,27.25,9.62,39.88,16.48,9.79,5.31,17.84,13.73,27.14,20.09,2.53,1.73,6.76.93,10.2,1.41,5.92.82,13.33-.09,17.32,3.16,3.63,3,3.54,10.48,5.93,19-6.28-2.38-9-2.95-11.28-4.36-8.46-5.37-17.23-10.41-25-16.66-25.59-20.61-54.1-32-87.42-31.76-37.94.25-75.94-2.21-113.81-.74-29.31,1.14-33.65,10.12-23.88,37.9,6.23,17.73,11.82,20.44,30.68,19.49,101.37-5.13,202.82-10.81,303.55,7.81,11.74,2.17,23.23,6.58,34.26,11.31,3.75,1.61,8.62,8.26,7.79,11.06-1.19,4-6.72,7.56-11.17,9.63s-9.73,2-16.16,3.09c2,9.42,4,18.55,6.48,30.15L797,493.19c2.37,9.48,2.8,11.89-7.54,15.3-25.58,8.46-51.39,18-77.86,21.69a649.86,649.86,0,0,1-197.15-3C483.16,521.92,463.83,504.12,451,475.18ZM292.81,446.37c31.8,7.1,61.48,1.26,91.22-3.43-4.46-1-8.93-.95-13.39-1.06s-9.19-.2-13.74-.69c-7.26-.79-11-4-10.18-12.34,1.34-13,4.07-14.71,24.38-15.24,8.77-.22,14,2,12.87,11.64-1.17,9.84,4.2,13.77,14,16.09,2.65-18.41-4.3-32.5-15.59-44.78-10.2-11.08-23.29-12.08-37-8.16C317.24,396.45,303.28,417.83,292.81,446.37ZM468,479.79c16.6,39.39,36,36.88,88.75,33.77-3.06-33.7-3.14-33.78-35-33.79l-22.49,0Zm-78.15,77.5,2.33-.06c0-6.89-.43-13.82.08-20.67,1.56-20.83,16.49-30.11,34.75-20.11,7.71,4.22,14.69,12.34,18.6,20.34,8.28,17,14.33,35,21.29,52.58a427.6,427.6,0,0,0-14.39-62A60.79,60.79,0,0,0,440.16,506c-13.39-15.2-34.85-13.74-45.83,3.31-4.39,6.81-8.94,8.06-16.19,7.92-23.57-.44-47.16-.17-70.75-.17,25,10.84,53.32,9.1,79.69,16.13C388,541.69,388.93,549.49,389.81,557.29Zm59.8,63.43c-3.09-11.93-4.94-24.39-9.63-35.67-4.43-10.64-13.29-10.65-18.21-.3-11.14,23.47-11.14,47.69-.18,71.2,5.08,10.89,14.28,10.59,18.94-.8C444.85,644.58,446.51,632.93,449.61,620.72ZM732.14,453.84l.3-8C669.21,432,604.59,437,540.38,435.65c38.45,6.06,77.1,7.77,115.11,19.77C678.58,462.71,706.43,454.88,732.14,453.84Zm-8.47,40.08c.54-2,1.07-3.91,1.6-5.87-4.38-1.39-8.78-4.07-13.13-4-41.7.79-83.38,2-125.07,3.2a25.21,25.21,0,0,0-4.22.84l-1.05,4.27c4.44,1.72,8.87,4.9,13.31,4.93q43.8.26,87.59-.74C696.37,496.27,710,494.84,723.67,493.92ZM588.87,512.2c11,12.49,125.7,8.18,140.43-4.69C683.22,506.26,637.37,512.84,588.87,512.2ZM287.73,553.42c-14.66,13.2-14.34,64.91.47,76.09C301,613.44,300.75,567.72,287.73,553.42Zm227.75,37.73c25.83,1.71,37.29-5.24,44.61-28.77.88-2.84-3.08-10.33-5-10.41-18.7-.8-37.45-.48-56.19-.48l-.32,4c3.26.66,6.51,1.75,9.79,1.88,7.46.28,15-.39,22.41.28,4.09.37,10.25,1.68,11.43,4.36,1.38,3.14-.27,9.73-3,12.16C532.07,580.51,523.64,585.46,515.48,591.15Zm267.31-48.34c2.7,7.89,4.65,15.05,7.68,21.73,1.14,2.52,5,5.76,7.14,5.41,2.95-.5,7.24-3.72,7.7-6.34,1.49-8.53,1.49-17.32,2.1-26.5ZM628.06,581.74,623.18,579c-10.57,10.89-11.79,26.63-17.09,41.09,4.87-.71,10.55-2,11.77-5.14C622.1,604.17,624.79,592.84,628.06,581.74Zm18,33.29c13.12.78,21.45-15.06,21.24-41.53C653.45,586.3,653.18,602.1,646.06,615Zm22.47-2c13.12.42,22-16.7,20.27-40C675.94,585.24,675.4,600.34,668.53,613Zm-43.93,4.3c13.62.48,20.22-11.7,22.31-41.54C632.29,588.25,631.83,604.17,624.6,617.29Zm-21.88-35.23c-10.65,10.64-12.59,25.49-18.36,39.44C595.87,621.36,602.08,608.71,602.72,582.06ZM690.27,611c13.24.57,18.45-8.56,20.85-37.75C696.41,583.87,697,599.2,690.27,611Zm19.49-2c13.69.11,20.18-11.8,19.9-34.27C715.45,582.47,717.64,597.7,709.76,609Zm-376.35-7,.07,3.77c17.06-1.7,34.51,11.07,51.32-.11l-.08-3.66Zm419.8-24.75C741,579.22,733.74,593,734,608.44,751.08,604.38,744.73,588.16,753.21,577.25ZM568.41,620.5l5.76,1.65,8.4-28.88L579,592.1Q573.73,606.31,568.41,620.5Z"/></svg>