<svg xmlns="http://www.w3.org/2000/svg" viewBox="0 0 637 343.64"><defs><style>.cls-1{fill:#ffc700;}.cls-2{font-size:90.1px;font-family:TwCenMT-Bold, Tw Cen MT;font-weight:700;}.cls-3{letter-spacing:-0.04em;}.cls-4{letter-spacing:-0.07em;}</style></defs><g id="Capa_2" data-name="Capa 2"><g id="Capa_1-2" data-name="Capa 1"><path class="cls-1" d="M172.09,240c-.05-1.66-.09-3.33-.09-5a149,149,0,0,1,298,0c0,1.67,0,3.34-.09,5h63c0-1.66.06-3.33.06-5,0-117.08-94.92-212-212-212S109,117.92,109,235c0,1.67,0,3.34.06,5Z"/><text class="cls-2" transform="translate(40.04 318.3)">SE<tspan class="cls-3" x="86.05" y="0">R</tspan><tspan x="134.97" y="0">VILLAN</tspan><tspan class="cls-4" x="416.45" y="0">T</tspan><tspan x="453.31" y="0">AS</tspan></text><rect y="235.36" width="637" height="9.84"/><rect y="333.79" width="637" height="9.84"/><path d="M284.7,235c.59-19.37,18.23-35.91,37.38-35.05,18.43.83,34.09,17.06,34.59,35.05h126c-.53-87.33-68-156.83-154.58-160.78C236.53,70.05,159.19,144.07,158.67,235Zm157-74.37c8.78,12.57,18.73,28.92,17.12,42.5-1,8.62-14.93,15-27.1,21.62a32.54,32.54,0,0,1-7.55,1.31l-17.24-1.24a5.84,5.84,0,0,1-1.74-.43c-10.19-4.33-18.14-4.93-27.66-8.14a5.57,5.57,0,0,1-3.06-7.85c5.34-10.21,10.25-20.75,17.23-29.67,5.57-7.12,14.59-12.81,23.22-15.92S439,156.79,441.69,160.63Zm-96.88-58.12c2.69-3.35,8.75-5.5,13.25-5.49,5.2,0,10.5,2.76,15.58,4.77,28.44,11.23,33,34,11.52,56.8-18.85,20-22.43,22.73-39.9,25.69a5.61,5.61,0,0,1-5.78-2.6C324.13,155.46,325.75,126.2,344.81,102.51ZM250,110.76c3.9-3.53,9.46-5.37,14.49-7.51,25.89-11,38.82-4.62,46.15,22.73,4.21,15.73.42,39.09-8.66,55.34a5.72,5.72,0,0,1-6.31,2.79c-29.06-6.61-51.12-31.38-52.42-60.66C243.06,119.24,246.6,113.86,250,110.76Zm-50.38,50.86c7.23-5.68,26.36,3.14,39.89,6.53,3.54.88,6.87,5.28,8.94,8.85,6.22,10.73,12,21.7,17.87,32.64a5.6,5.6,0,0,1-3.16,8c-10.64,3.61-21.23,6.43-31.88,10.32a5.5,5.5,0,0,1-2.81.27L209.68,225a5.46,5.46,0,0,1-1.8-.64c-10.19-5.75-26-14.07-25.67-20.7C182.83,188.93,188.89,170.05,199.62,161.62Z"/><path d="M345.41,235a24.87,24.87,0,0,0-49.7,0Z"/><path d="M144.84,235c.5-96.13,79-174.5,175.22-174.73,96.65-.22,175.86,78.3,176.3,174.73h60.42c0-3.17.07-6.33,0-9.56-1.83-70.11-33.14-129.12-88-173.32C413.28,7.39,349.19-8.2,278.67,4,199.85,15.6,87.49,88.93,84.46,235Z"/></g></g></svg>