<svg id="Capa_1" data-name="Capa 1" xmlns="http://www.w3.org/2000/svg" viewBox="0 0 1080 1080"><path d="M613.44,386.58c0,.27,0,.59.08.79q4.66,7.47,9.37,14.92c3.42,5.44,6.55,11.1,10.48,16.14,1.11,1.41,4.59,1.14,7,1.26.84,0,1.73-1.08,3.51-2.3,2.48,3.83,5.71,8,8,12.66a185.3,185.3,0,0,1,7.77,18.36c2.36,6.28,2.18,6.35-4.32,7.13,1.52,4.93,2.56,10,4.71,14.62,1.22,2.61,4.19,4.44,6.46,6.53,4.72,4.35,7.49,10,10.17,15.61,2.53,5.35,4.92,10.78,7.78,17.06-.85-6.06-1.57-11.24-2.21-15.83-1.76-.6-3.9-.8-4.06-1.48-.44-1.87-.86-4.82.16-5.75,1.94-1.76,1.82-3.33,1.27-5.26-2.2-7.66-4.45-15.31-6.69-23a14.19,14.19,0,0,1-.79-4.15c4.06,11.19,8.2,22.32,9.29,34.37.56,6.22,2.87,12.28,3.39,18.49,1,11.53,1.3,23.11,1.64,34.68,0,1.51-1.45,3.06-2.53,5.18,4.78,7,1.29,15.21.38,23.11a201.33,201.33,0,0,1-14.92,56.57c-.61,1.42-2.17,2.41-3.1,3.74a9.33,9.33,0,0,0-1.32,3c-.51,1.89-.43,4-1.29,5.73-7.07,14-15.71,26.91-27.06,37.82-17.4,16.72-37.55,26.74-62.35,25.46-9.95-.51-20,0-29.87-1.24-12.69-1.56-23.79-7.55-33.71-15.48-1.56-1.24-2-3.88-3.25-6.45-5,1.26-7.73-3.08-10.86-6.57a140.34,140.34,0,0,1-22.4-33.86c-.88-1.85-.74-4.18-1.41-5.91-1.77-3-4-5.91-5.25-9.15a206.26,206.26,0,0,1-12.31-46.18c-.27-1.83.49-3.8.75-5.53-.8-2.31-2.14-4.75-2.45-7.31-2.14-17.51-1.89-35.07-.62-52.64.25-3.41,2.41-3.16,5.47-3.7-6.51-3.76-3.86-8.92-3.08-13.61C460,466,469,439.21,485,415c1.51-2.27,3.08-3.55,5.82-2.17.63.93,1.25,1.87,2.08,3.11,8.82-9.87,18.24-18.59,30.1-24.48a27.43,27.43,0,0,0-9.33,2.53c-9,4.6-16.14,11.53-22.89,18.91-1.59-4.45,1-7.36,3.65-10.36,18.78-21.15,42.43-31.6,70.58-31.87,8.89-.09,17.88-.16,26.68.95,13.81,1.75,25.75,8.29,36.53,16.9,1.29,1,1.9,2.92,3.09,4.85l4.08,1-.37,1.22L625,392.41l.27-1.23,2.89-.71c-5.13-5.49-11.32-8.83-17.26-9l2.59,3.07,0-.22c0,.67,0,1.34,0,2Zm-3.12,4.65a12,12,0,0,0-2.65-.26c-4.9.68-9.77,1.54-14.67,2.15a65.58,65.58,0,0,1-7.1,0c3.84,2.26,7.33,3.48,9.62,5.84a70.28,70.28,0,0,1,9.66,12.64c3.83,6.42,9,10.44,16.3,12,6.09,1.32,10.23,5,12.53,11,4.32,11.4,9,22.66,13.54,34h6.91c-1.66-5-3.24-9.67-4.88-14.55,5.3.73,5.31.63,4.83-3.77-1-9.69-5.82-17.78-10.71-25.87-2-3.32-4.34-5-8.38-4.43-1.56.21-4-.3-4.85-1.4-6.48-8.63-12.66-17.48-18.94-26.26Zm-90.38,45.85c3.84-.73,8.17-4.62,8.67-8.72L520.56,433c-1.33.14-2.84-.07-4,.49a44.45,44.45,0,0,0-19.92,18.79c-4,7.34-8.08,14.76-10.9,22.59-13.75,38.07-14.54,76.79-4.84,115.89,2,8.07,5.3,15.46,11.59,22.08.65-1.42,1.65-2.56,1.52-3.55a62.07,62.07,0,0,0-2.08-11c-11-34.36-11.87-69.07-3.24-104,5.19-21,13.91-40.22,30.26-55.2A6.17,6.17,0,0,0,519.94,437.08Zm51.21,205.35L583.44,622l-1-.41-29.3,9.5c2.14,2.69,3.63,5.06,5.6,6.94,3,2.87,6.31,5.39,9.5,8.06-9.68,12.53-22.14,19.77-38.26,19.16-5.11-.2-10.16-1.89-15.51-3,.73.49,1.25.88,1.81,1.19,15.25,8.45,30.05,5.4,44.12-2.61,5.42-3.08,10.19-7.77,14.35-12.52,15.43-17.61,23.4-38.86,28.25-61.36a219.66,219.66,0,0,0,4.05-27.62c.78-9.14.37-18.36.78-27.53s-2.15-17.85-3.18-26.75a140.19,140.19,0,0,0-13.53-47c-9.62-19.17-21.06-36.17-43.16-43.52-12.86-4.27-33-.23-43.5,11.91,1.9-1.2,2.85-1.77,3.78-2.38,11.61-7.58,24-9.93,37.29-5.22,11.32,4,19.93,11.74,26.83,21.27,17.4,24,25.27,51.44,27.77,80.62a221.83,221.83,0,0,1-1.92,54.54c-3.68,22.83-10.32,44.59-23.82,63.75A27.91,27.91,0,0,1,571.15,642.43Zm-.1-164.72c-1.31-1.09-3.07-1.93-3.84-3.32-2.22-4-6.2-5.49-9.88-7.42-9.12-4.78-18.35-5-27.56-.25-8.86,4.51-15,11.81-19.88,20.2-9.58,16.37-13.56,34.32-14.37,53-1,22.57,2.45,44.32,13.34,64.46a17.62,17.62,0,0,0,2.78,3.11l1.89,4.09c-2.49-.28-2.58,1.62-3,3.26-.4,1.47-.92,2.9-1.39,4.35l-1.23-.26c0-3-.45-6,.1-8.9.86-4.53-.73-6.7-5.65-7-.32,2.19-.65,4.47-1,7.09l-3.05-2.85a80.64,80.64,0,0,0,18.55,29.15,69.88,69.88,0,0,0,10.26,8c2.56,1.76,5.16,1.67,6.74-1.11-1.69-2.38-3.39-4.55-4.86-6.88-4.72-7.46-9.36-15-14-22.48l1.8.71a26.12,26.12,0,0,0,2.08,3.32c11.75,13.76,29.44,15.63,43.92,4.76a36.8,36.8,0,0,1,4.43-2.49l1.56-.35c7.54-5.59,12.55-13.17,16.43-21.5,11.45-24.6,13.31-50.36,8.67-76.77-2.29-13.08-6.71-25.46-14.15-36.55-2.37-3.54-5.42-6.63-8.16-9.93l-1,.75Zm-14-31c8,12.52,15.68,24.15,23,36,19,30.88,21.19,64.06,12.84,98.51-1.46,6-3.83,11.79-5.84,17.86,2.83.28,4.4-.48,5.15-3.47A215.27,215.27,0,0,0,598.67,543c0-29.9-4.44-58.92-17.91-86-3.52-7.07-8.17-13.58-12.9-21.33Zm89.18,22.14c-4.93-12-9.72-23.78-14.72-35.5A6.22,6.22,0,0,0,628,430.5c-5.65-2-11.45-3.53-17.07-5.57a11.11,11.11,0,0,1-4.8-3.58c-3.52-4.67-6.93-9.46-10-14.43-4.5-7.31-12-6.95-19.63-8.83,4.88,5.21,9.91,9.12,13,14.19,7.39,12.06,17.47,20.58,30,26.81,2.46,1.22,4.63,4.1,5.74,6.71,3.11,7.34,5.64,14.93,8.31,22.44,1.52,4.31,3.93,5.29,7.81,3C642.62,470.56,643.94,470,646.23,468.81ZM476.48,592.35l-2.39.71c.29,4.47-.29,9.21,1,13.36,5.29,16.81,13,32.52,25.65,45,9.33,9.22,20.9,13,34.18,10.53-2.42-1.17-5.43-1.2-7.47-2.63-7.49-5.23-15.33-10.23-21.78-16.6C494.4,631.62,488,617.33,482.5,602.6,481.14,598.94,478.52,595.76,476.48,592.35ZM607.17,437.71c4.26,12.92,8.47,25.75,12.75,38.54a4.6,4.6,0,0,0,1.68,1.92,73.29,73.29,0,0,0,6.13,4.29,18.71,18.71,0,0,0,3.78,1.29c0-2.62,4.48-5.2,1.13-7.47-3.54-2.39-4.42-5.64-5.47-9.15-1.18-3.94-2.81-7.78-3.61-11.8C621.67,445.77,614.06,441.94,607.17,437.71ZM458,489l1.14.51c.36-1.23.74-2.46,1.08-3.7,6.42-23,13.6-45.68,28.69-64.87.75-1,.38-2.8.53-4.23l-1.35-.11C471.91,438.19,462.89,462.73,458,489ZM515.71,641.5c-2,11,9.86,17.56,23.41,13.11Zm27.76-201.16c5.21,10.35,11.9,19.49,21.82,26.8C566.23,460.69,551.76,442.84,543.47,440.34Zm79.18,45.57c1.64,13.9,3.21,27.15,4.78,40.39h.86V490.5ZM544.77,384.14c5.23,1.72,11.91,3.21,17.93,6.08,5.86,2.8,11.84,2.81,18.1,3.54C578.7,389.06,564.41,385.48,544.77,384.14ZM635,611.65c4.49-6.7,9.75-47.93,6.78-51.64C639.54,577.11,637.27,594.39,635,611.65Zm-86.66,19.73c-.84,2.87-1.54,4.26-1.61,5.68-.25,5.38,3.79,8.83,6.18,13,.14.25,1.27.22,1.73,0s1-1.16.87-1.51C553.28,643,550.94,637.52,548.35,631.38Zm-37-149.76c-5.61,6.78-15.51,9-19,17.79C499.91,494.79,507.62,490.26,511.32,481.62Zm163,103.29q-6.9,21.48-14.89,46.36C667.75,615.61,671.18,599.67,674.32,584.91ZM654,541.1,642.86,531l-2.51,2.65c3.09,2.84,6.08,5.44,8.89,8.23C651,543.61,652.36,543.48,654,541.1Zm-28.51-4.88v1.17c7.31,4.33,9.13,13.37,15.52,19.07.09-.85.29-1.3.14-1.54-3.6-5.72-7.1-11.53-11-17C629.37,536.77,627.07,536.74,625.47,536.22ZM623.11,640l-.82-.57-15.61,22.67.82.57C614.09,656,618.36,647.84,623.11,640Zm-7.22-29.41c1.33,3.63,2.49,6,3.1,8.58,1.29,5.35,2.29,10.77,3.41,16.15l1-.21c-1.36-7-2.61-14-4.17-20.91C618.94,613,617.38,612.13,615.89,610.56ZM629.5,664.1l1.41.91q5.54-8.84,11.08-17.65l-.73-.46Zm-41.2-3c5.71,5.86,1.41,12.7,2.17,19.2C593.88,675.05,592.7,662.56,588.3,661.07Zm.91,22.62-.58-.88L573.2,692l.61,1Zm17.18-17.2-.53,0v11.83l.53,0Zm50-32.37.54-2.06-6.35-1.17-.43,1.9Z"/><path d="M568.7,619.92l-1.56.35c.13-.59.06-1.37.42-1.76,13.81-15.1,19.55-33.58,22.46-53.27.91-6.22,1.69-12.42-1.18-19.08-.23,1.68-.37,2.75-.66,4.9a20.57,20.57,0,0,0,0-3.87,40.84,40.84,0,0,0-1.46-4.1c-1.42.93-3.56,1.55-4.11,2.85a32.59,32.59,0,0,0-2.49,9.45c-1.54,15.69-5.61,30.42-16.16,42.6-12,13.89-28.25,14.25-41,1.1-1.55-1.6-2.7-3.64-4.38-5.08-1.22-1-3.08-2-4.51-1.85-.84.11-2,2.56-1.94,3.93a32.52,32.52,0,0,0,1.43,7.22c1,3.81,2.14,7.58,3.21,11.37l-1.8-.71-1.38-2.36-1.89-4.09c-8.55-15.1-12.82-31.11-10.47-48.69,1.18,2.79,1.78,5.86,5.78,6.31a105.15,105.15,0,0,1-.46-33.94c2.32-14.45,7-27.92,17.7-38.48,11-10.79,25.12-11.22,36.41-.77,3.84,3.55,6.81,8.12,9.75,12.51,1.46,2.17,2.82,2.48,4.87,1.52,3.59-1.68,3.56-4.9,3.2-8.09-.46-4-1.14-8-1.72-12,1,1.85,2.13,3.66,3,5.57,11.22,24.78,13.61,50.91,11.1,77.58-1.52,16.11-6.44,31.2-16.8,44.08C572.18,615.33,570.46,617.64,568.7,619.92ZM531.88,491.58c1.53,0,3.06,0,4.59,0,3.16,0,6.43-.62,9.47,0,8.3,1.65,13.77,7.38,17.83,14.32,10.9,18.63,12.49,38.73,8.41,59.49-2.24,11.41-6.51,22-15.16,30.2-9.07,8.63-21.11,9-30.08.29-4-3.9-6.8-9.09-10.15-13.69-.91-1.25-1.83-2.48-2.75-3.72-.81,1-.95,1.54-.79,2,3.55,10.47,9.54,19.07,19.68,24,8.9,4.35,17.48,2.87,25-3.19,2-1.63,3-4.67,4.25-7.14.41-.8-.05-2.2.48-2.75,2.12-2.21,4.72-4,6.71-6.31,6.49-7.56,8-17,9-26.39.47-4.7.08-9.49.08-14.23h-.7c-.19,1.69-.38,3.38-.47,4.24-.57-5.79-.95-12.42-1.95-19-1.17-7.67-1.13-15.6-5-22.74-5-9.19-11.16-17-21.69-19.93-6.15-1.72-12.12-1.39-16.7,4-1.09.2-2.49,0-3.23.65-3,2.51-6.43,4.87-8.73,8-9.84,13.37-13.19,28.83-13.59,45.1-.16,6.61,0,13.22,2.92,19.47a21.67,21.67,0,0,0,.75-5.38c.16-9.15-.64-18.42.58-27.42,2-14.65,7.18-28.1,19.81-37.38C531.19,493.64,531.42,492.46,531.88,491.58ZM526,567.53a14,14,0,0,0-2.27,11.66c.8,3.14,1.83,6.23,2.64,9.37a12.77,12.77,0,0,0,8.17,9.25c8,3.18,16.35,1.14,23.13-6.06,8.76-9.31,12.67-20.83,14-33.21.44-4.16-.55-8.57-1.47-12.74-.34-1.58-2.31-2.8-3.86-4.56-.18,1.22-.29,2-.25,1.72-.72-.39-2.12-1.68-2.73-1.38-2.14,1.06-4.47,2.31-5.86,4.14a34.3,34.3,0,0,0-5,9.23C548.12,567.45,540.34,571.29,526,567.53Zm34.74-60.45,5.09,8.14c-3.58-9.45-8.8-17.48-19.06-20.6a16.89,16.89,0,0,0-19.53,6.85A30.07,30.07,0,0,0,522,514.82c-.53,4.56-2.13,9-1.34,14,1.92-1,3.47-2,5.14-2.74,6.3-2.61,12.69-3.14,18.7.59,6.6,4.09,13.71,1.44,15-6.17C560.33,516.16,560.38,511.66,560.77,507.08Zm-13.32,40c-1.11-4.19-1.77-8.57-3.43-12.53-2.1-5-5.85-8.7-11.78-8.69-5.73,0-9.18,3.68-11.62,8.39a25.6,25.6,0,0,0,4,29.22c4.6,5.11,10.62,5.31,15.69.4C545,559.33,546.61,553.55,547.45,547.07Zm1.94,1.33c-2.24,5.08-5,11.29-8,18.16,2.46-1.95,4.86-3.45,6.77-5.44C552.3,556.79,549.82,551.77,549.39,548.4Zm-9.13-21.55c1.64,2.36,3.15,4.23,4.32,6.29s2.06,4.59,3.26,6.8c.43.78,1.45,1.24,2.19,1.84.35-.63,1-1.25,1-1.91C551.4,534.55,546.43,528.35,540.26,526.85Z"/></svg>