<svg xmlns="http://www.w3.org/2000/svg" viewBox="0 0 542.39 318.56"><g id="Capa_2" data-name="Capa 2"><g id="Capa_1-2" data-name="Capa 1"><path d="M181.84,112.5c101-3.69,201.43,7,300.28-15-27.12,1.69-54.23,4.48-81.37,4.86-72.64,1-145.28,1.08-217.93,1.19-4.62,0-9.69-2.08-13.8-4.49A65.47,65.47,0,0,0,127,90.27c-33.18,3.85-66.36,7.81-99.62,10.79-9.83.89-14.63,4.3-14.68,15.65,6.47-.3,12.88-.91,19.29-.86,37.53.27,75.07.43,112.6,1.2,14,.29,26.33,5.47,34,18,20,32.28,51.44,41.74,86.54,44.3,76.69,5.58,152.73-1.13,228.38-13.06,13.72-2.17,26.78-8.51,40.59-13.07,13.32,19.25,9.95,80.91-5.74,98.54,1.46,3.27,3.73,6,3.83,8.92,1,26.58-15.36,45.44-41.34,48.19-31.64,3.34-41.63-2.35-56.07-35.11-4-9.12-8.2-12.76-18.26-11.64q-90.84,10.14-181.8,19.37c-6.92.71-9.82,3.35-11.48,10.24-4,16.53-15.2,25.38-32,26.68-4.16.32-8.35.17-12.53.17-26.11,0-31.21-3.86-37-30-2.23-10.12-3-20.55-4.62-32-17-2.05-34.25-5.19-51.59-5.78-8.58-.29-18.33,2.15-18.74,15.22-.31,9.95-6.75,14.62-16.9,14.13-6.25-.3-12.63-.78-18.77.11-14,2-21-4.91-21.61-17.56-1-21.49-.71-43.05-.79-64.58,0-3.23.88-6.46-.27-10.2L3.16,199.61l-2.91,0c0-14.43-.7-28.92.25-43.29.6-8.94,11.52-11.41,17.57-3.09,5.63,7.74,8.75,17.67,11.44,27.08,3.3,11.59,4.66,23.71,7.55,35.43,1.2,4.87,4.2,9.3,8,13.14-4.13-22-7.88-44.07-12.52-66-4-19-8.82-22.7-27.35-23.78C2.37,102.75,20,72.55,37.67,43.79,52.66,19.36,80.34,11,107.78,7.14,171.35-1.77,235.25-2.12,299,4.85c13.77,1.51,27.24,9.62,39.88,16.48,9.79,5.31,17.84,13.73,27.13,20.09,2.54,1.73,6.77.93,10.2,1.41,5.93.82,13.34-.09,17.33,3.16,3.62,3,3.53,10.48,5.93,19-6.29-2.38-9.05-2.95-11.28-4.36-8.46-5.37-17.23-10.41-25-16.66C337.54,23.36,309,12,275.72,12.21c-37.94.25-76-2.21-113.81-.74C132.6,12.62,128.26,21.6,138,49.37c6.23,17.73,11.83,20.44,30.69,19.49,101.37-5.13,202.81-10.81,303.54,7.81C484,78.85,495.49,83.26,506.52,88c3.75,1.61,8.62,8.26,7.79,11.06-1.19,4-6.72,7.56-11.17,9.63s-9.73,2-16.17,3.09c2,9.42,4,18.55,6.49,30.15l34.39-11.4c2.36,9.49,2.8,11.89-7.54,15.31-25.59,8.45-51.39,18-77.87,21.69a650.19,650.19,0,0,1-197.15-3.06C214.05,159.24,194.72,141.44,181.84,112.5ZM23.7,83.69c31.8,7.1,61.48,1.26,91.22-3.43-4.46-1-8.93-1-13.4-1.06s-9.18-.2-13.74-.69c-7.25-.79-11-4-10.18-12.34C79,53.14,81.67,51.46,102,50.94c8.78-.23,14,2,12.88,11.63-1.17,9.84,4.19,13.77,14,16.09,2.66-18.4-4.29-32.5-15.59-44.78C103.05,22.8,90,21.8,76.27,25.72,48.13,33.77,34.17,55.15,23.7,83.69Zm175.14,33.42c16.61,39.39,36,36.88,88.76,33.77-3.07-33.7-3.14-33.78-35.05-33.79l-22.48,0Zm-78.15,77.5,2.34-.06c0-6.89-.44-13.82.08-20.67,1.56-20.82,16.49-30.1,34.75-20.11,7.7,4.22,14.69,12.34,18.6,20.34,8.28,16.95,14.32,35,21.28,52.58a427.57,427.57,0,0,0-14.38-62A60.66,60.66,0,0,0,171,143.29c-13.39-15.2-34.84-13.74-45.83,3.31-4.38,6.81-8.93,8.06-16.18,7.92-23.58-.44-47.17-.17-70.75-.17,25,10.84,53.31,9.1,79.69,16.13C118.93,179,119.81,186.81,120.69,194.61ZM180.5,258c-3.09-11.93-4.95-24.39-9.64-35.67-4.42-10.64-13.28-10.65-18.2-.3-11.15,23.47-11.15,47.69-.18,71.2,5.08,10.89,14.28,10.59,18.93-.8C175.73,281.9,177.4,270.25,180.5,258ZM463,91.16l.3-8C400.1,69.32,335.48,74.31,271.27,73c38.45,6.06,77.09,7.77,115.11,19.77C409.46,100,437.32,92.2,463,91.16Zm-8.47,40.08c.53-2,1.07-3.91,1.6-5.87-4.38-1.39-8.78-4.07-13.13-4-41.7.79-83.39,2-125.08,3.21a24.11,24.11,0,0,0-4.21.83l-1.06,4.27c4.44,1.72,8.87,4.9,13.32,4.93q43.8.25,87.59-.74C427.26,133.59,440.9,132.16,454.56,131.24Zm-134.8,18.28c11,12.5,125.7,8.18,140.42-4.69C414.11,143.58,368.26,150.17,319.76,149.52ZM18.62,190.74c-14.66,13.2-14.34,64.91.47,76.09C31.92,250.77,31.64,205,18.62,190.74Zm227.75,37.73c25.82,1.71,37.29-5.24,44.61-28.77.88-2.84-3.09-10.33-5-10.41-18.7-.8-37.45-.48-56.19-.48l-.32,4c3.26.65,6.5,1.74,9.78,1.87,7.47.28,15-.39,22.42.28,4.09.37,10.25,1.68,11.42,4.36,1.39,3.14-.26,9.73-3,12.16C263,217.84,254.53,222.78,246.37,228.47Zm267.31-48.34c2.69,7.89,4.65,15.05,7.67,21.73,1.15,2.52,5,5.76,7.15,5.41,3-.5,7.24-3.71,7.7-6.34,1.48-8.53,1.49-17.32,2.1-26.5ZM359,219.06l-4.88-2.79c-10.57,10.89-11.8,26.63-17.1,41.09,4.87-.71,10.55-2.05,11.78-5.14C353,241.5,355.67,230.16,359,219.06Zm18,33.29c13.12.78,21.45-15,21.24-41.53C384.34,223.62,384.06,239.42,377,252.35Zm22.47-2c13.12.42,22-16.69,20.26-40C406.83,222.57,406.29,237.66,399.42,250.31Zm-43.93,4.3c13.61.48,20.22-11.7,22.31-41.54C363.18,225.57,362.71,241.49,355.49,254.61Zm-21.88-35.23C323,230,321,244.87,315.25,258.82,326.76,258.68,333,246,333.61,219.38Zm87.55,28.9c13.23.57,18.45-8.56,20.84-37.75C427.3,221.2,427.88,236.52,421.16,248.28Zm19.49-2c13.69.11,20.17-11.8,19.89-34.27C446.34,219.79,448.53,235,440.65,246.32Zm-376.35-7,.07,3.77c17.06-1.7,34.51,11.07,51.32-.11l-.08-3.66Zm419.8-24.75c-12.26,2-19.48,15.71-19.18,31.19C482,241.7,475.62,225.48,484.1,214.57ZM299.3,257.82l5.75,1.65,8.4-28.87-3.52-1.17Q304.61,243.62,299.3,257.82Z"/></g></g></svg>